<svg xmlns="http://www.w3.org/2000/svg" xmlns:xlink="http://www.w3.org/1999/xlink" width="250" zoomAndPan="magnify" viewBox="0 0 187.5 187.499992" height="250" preserveAspectRatio="xMidYMid meet" version="1.0"><defs><clipPath id="1cc41222c1"><path d="M 2.242188 0 L 186.996094 0 L 186.996094 184.757812 L 2.242188 184.757812 Z M 2.242188 0 " clip-rule="nonzero"/></clipPath></defs><g clip-path="url(#1cc41222c1)"><path fill="#000000" d="M 94.621094 0 C 43.683594 0 2.242188 41.445312 2.242188 92.378906 C 2.242188 143.3125 43.683594 184.757812 94.621094 184.757812 C 145.554688 184.757812 186.996094 143.3125 186.996094 92.378906 C 186.996094 41.445312 145.554688 0 94.621094 0 Z M 42.738281 154.277344 C 43.597656 126.375 66.507812 103.925781 94.621094 103.925781 C 122.730469 103.925781 145.640625 126.375 146.5 154.277344 C 132.449219 166.074219 114.359375 173.210938 94.621094 173.210938 C 74.878906 173.210938 56.789062 166.074219 42.738281 154.277344 Z M 65.75 63.511719 C 65.75 47.59375 78.703125 34.640625 94.621094 34.640625 C 110.539062 34.640625 123.488281 47.59375 123.488281 63.511719 C 123.488281 79.429688 110.539062 92.378906 94.621094 92.378906 C 78.703125 92.378906 65.75 79.429688 65.75 63.511719 Z M 156.941406 143.792969 C 152.761719 122.210938 137.621094 104.542969 117.570312 96.730469 C 128.105469 89.433594 135.035156 77.269531 135.035156 63.511719 C 135.035156 41.230469 116.898438 23.09375 94.621094 23.09375 C 72.339844 23.09375 54.203125 41.230469 54.203125 63.511719 C 54.203125 77.269531 61.132812 89.433594 71.667969 96.738281 C 51.617188 104.550781 36.476562 122.21875 32.292969 143.800781 C 20.738281 129.816406 13.789062 111.894531 13.789062 92.378906 C 13.789062 47.804688 50.046875 11.546875 94.621094 11.546875 C 139.191406 11.546875 175.449219 47.804688 175.449219 92.378906 C 175.449219 111.894531 168.5 129.816406 156.941406 143.792969 Z M 156.941406 143.792969 " fill-opacity="1" fill-rule="nonzero"/></g></svg>