<?xml version="1.0" standalone="no"?>
<!DOCTYPE svg PUBLIC "-//W3C//DTD SVG 20010904//EN"
 "http://www.w3.org/TR/2001/REC-SVG-20010904/DTD/svg10.dtd">
<svg version="1.0" xmlns="http://www.w3.org/2000/svg"
 width="379.000000pt" height="134.000000pt" viewBox="0 0 379.000000 134.000000"
 preserveAspectRatio="xMidYMid meet">

<g transform="translate(0.000000,134.000000) scale(0.100000,-0.100000)"
fill="#000000" stroke="none">
<path d="M1485 1214 c-16 -8 -62 -39 -100 -68 -100 -75 -115 -79 -281 -65 -77
6 -200 11 -274 11 -118 0 -146 -3 -225 -26 -49 -15 -116 -41 -149 -59 -58 -31
-145 -107 -182 -159 -15 -22 -33 -30 -91 -42 -167 -34 -217 -98 -135 -175 21
-20 59 -47 85 -60 37 -19 48 -30 53 -55 11 -64 -48 -156 -112 -172 -31 -8 -31
-20 0 -28 39 -10 82 -52 101 -98 l17 -43 13 39 c8 22 22 48 33 58 19 19 20 19
41 -16 54 -87 196 -181 309 -205 136 -29 247 -9 411 73 112 56 135 63 267 80
115 15 165 31 221 69 43 29 41 37 -5 37 -68 0 -103 48 -69 94 10 14 39 21 120
31 110 13 134 23 213 86 67 53 65 61 -9 53 -61 -6 -65 -5 -85 21 -45 57 -15
117 65 130 28 4 73 -1 140 -16 71 -16 112 -20 146 -15 75 11 149 77 172 154 7
23 7 23 -43 -5 l-51 -28 -28 21 c-37 28 -42 68 -11 101 35 37 85 54 163 55
l70 1 -35 15 c-19 8 -67 17 -105 20 -68 4 -74 3 -155 -38 -111 -56 -177 -60
-258 -15 -30 16 -62 40 -73 53 -48 61 -4 130 95 153 l58 13 -73 17 c-94 23
-204 24 -244 3z m-1272 -858 c23 -23 23 -25 7 -39 -10 -8 -19 -20 -22 -27 -2
-8 -15 -1 -35 19 -19 19 -26 31 -17 31 7 0 19 9 26 20 16 24 12 25 41 -4z"/>
<path d="M2710 884 c-36 -16 -50 -32 -62 -72 -11 -38 7 -68 66 -111 60 -44 66
-71 16 -71 -20 0 -36 10 -58 38 -25 31 -34 35 -48 26 -25 -15 -50 -92 -35
-107 9 -9 19 -8 41 5 26 15 33 15 57 3 81 -43 193 9 193 88 0 30 -23 57 -93
110 -23 17 -34 33 -31 42 10 25 42 17 84 -21 21 -20 44 -33 49 -29 10 6 31 68
31 93 0 14 -42 16 -56 2 -6 -6 -24 -4 -49 5 -50 18 -62 18 -105 -1z"/>
<path d="M2992 858 c2 -44 -52 -239 -69 -245 -7 -3 -13 -11 -13 -19 0 -10 13
-14 41 -14 38 0 41 2 36 22 -6 20 16 117 31 142 3 6 17 -28 32 -74 17 -57 31
-86 42 -88 11 -2 43 29 92 88 42 50 76 88 76 84 0 -20 -35 -122 -46 -135 -29
-33 -17 -40 59 -37 65 3 72 5 70 23 -3 29 57 237 73 256 23 25 17 29 -46 29
l-59 0 -75 -90 -75 -90 -28 87 -28 88 -58 3 -57 3 2 -33z"/>
<path d="M3475 870 c8 -25 -52 -241 -71 -256 -35 -28 -14 -34 114 -34 70 0
132 4 138 8 10 6 34 65 34 82 0 23 -34 15 -71 -15 -44 -37 -79 -46 -79 -19 0
33 24 94 36 94 7 0 18 -9 24 -20 6 -11 15 -20 21 -20 11 0 39 60 39 85 0 20
-29 19 -52 -2 -25 -22 -33 -10 -22 35 8 32 13 37 42 40 29 3 34 0 43 -28 15
-43 49 -38 62 9 15 59 11 61 -133 61 -126 0 -131 -1 -125 -20z"/>
<path d="M2227 538 c-26 -24 -26 -27 -9 -32 11 -4 24 -16 29 -29 l10 -22 7 21
c3 12 15 25 25 30 18 8 17 11 -8 34 l-26 25 -28 -27z"/>
<path d="M2060 491 c-15 -30 -33 -48 -60 -60 l-39 -17 44 -22 c32 -15 47 -30
56 -56 13 -36 29 -48 29 -22 0 23 47 72 81 87 l32 13 -42 18 c-32 13 -46 27
-60 59 l-19 42 -22 -42z"/>
</g>
</svg>
